{"title":"Prag2006[x264][AC3(5.1)]Multi_Sub.mkv","uid":5238423,"size":1795992291,"categoryP":"video","categoryS":"movies","magnet":"?xt=urn:btih:09fd2fc8a596bfcdfe9ed97d42e98ff2bc46376e&amp;dn=Prag2006%5Bx264%5D%5BAC3%285.1%29%5DMulti_Sub.mkv&amp;tr=udp%3A%2F%2Ftracker.openbittorrent.com%3A80&amp;tr=udp%3A%2F%2Fopen.demonii.com%3A1337&amp;tr=udp%3A%2F%2Ftracker.coppersurfer.tk%3A6969&amp;tr=udp%3A%2F%2Fexodus.desync.com%3A6969","seeders":0,"leechers":1,"uploader":"Zen_Bud","files":-1,"time":1261643399,"description":"General\nComplete name                    : Prag.mkv\nFormat                           : Matroska\nFile size                        : 1.67 GiB\nDuration                         : 1h 32mn\nOverall bit rate                 : 2 599 Kbps\n\n\nVideo\nID                               : 1\nFormat                           : AVC\n\nCodec ID                         : V_MPEG4/ISO/AVC\nDuration                         : 1h 32mn\nBit rate                         : 1 987 Kbps\nNominal bit rate                 : 2 014 Kbps\nWidth                            : 720 pixels\nHeight                           : 434 pixels\nDisplay aspect ratio             : 2.35:1\nFrame rate                       : 25.000 fps\nResolution                       : 8 bits\nColorimetry                      : 4:2:0\nScan type                        : Progressive\nBits/(Pixel*Frame)               : 0.254\nStream size                      : 1.28 GiB (76%)\nWriting library                  : x264 core 79\n\n\nAudio #1\nID                               : Film\nFormat                           : AC-3\nFormat/Info                      : Audio Coding 3\nCodec ID                         : A_AC3\nDuration                         : 1h 32mn\nBit rate mode                    : Constant\nBit rate                         : 448 Kbps\nChannel(s)                       : 6 channels\nChannel positions                : Front: L C R, Surround: L R, LFE\nSampling rate                    : 48.0 KHz\nStream size                      : 295 MiB (17%)\nLanguage                         : Danish\n\nAudio #2\nID                               : Directors Comment\nFormat                           : MPEG Audio\nFormat version                   : Version 1\nFormat profile                   : Layer 3\nMode                             : Joint stereo / MS Stereo\nCodec ID                         : A_MPEG/L3\nCodec ID/Hint                    : MP3\nDuration                         : 1h 32mn\nBit rate mode                    : Constant\nBit rate                         : 112 Kbps\nChannel(s)                       : 2 channels\nSampling rate                    : 48.0 KHz\nStream size                      : 73.8 MiB (4%)\nLanguage                         : Danish\n\nText #1\nLanguage                         : English\n\nText #2\nLanguage                         : Finnish\n\nText #3\nLanguage                         : Norwegian\n\nText #4\nLanguage                         : Swedish\n\nText #5\nLanguage                         : Danish\n\nText #6\nLanguage                         : English\n\n\n\n","torrent":{"xt":"urn:btih:09fd2fc8a596bfcdfe9ed97d42e98ff2bc46376e","amp;dn":"Prag2006%5Bx264%5D%5BAC3%285.1%29%5DMulti_Sub.mkv","amp;tr":["udp%3A%2F%2Ftracker.openbittorrent.com%3A80","udp%3A%2F%2Fopen.demonii.com%3A1337","udp%3A%2F%2Ftracker.coppersurfer.tk%3A6969","udp%3A%2F%2Fexodus.desync.com%3A6969"],"infoHash":"09fd2fc8a596bfcdfe9ed97d42e98ff2bc46376e","infoHashBuffer":{"type":"Buffer","data":[9,253,47,200,165,150,191,205,254,158,217,125,66,233,143,242,188,70,55,110]},"announce":[],"urlList":[]}}